{"title":"Red State (2011) BRRip NL subs DutchReleaseTeam [Horror&amp;Thri","uid":6741842,"size":739300637,"categoryP":"video","categoryS":"movies","magnet":"?xt=urn:btih:281640545305f935ce95929659c4c737d62a6e43&amp;dn=Red+State+%282011%29+BRRip+NL+subs+DutchReleaseTeam+%5BHorror%26amp%3BThri&amp;tr=udp%3A%2F%2Ftracker.openbittorrent.com%3A80&amp;tr=udp%3A%2F%2Fopen.demonii.com%3A1337&amp;tr=udp%3A%2F%2Ftracker.coppersurfer.tk%3A6969&amp;tr=udp%3A%2F%2Fexodus.desync.com%3A6969","seeders":1,"leechers":0,"uploader":"Koedje","files":-1,"time":1318535445,"description":" &lt;a href=&quot;http://img195.imageshack.us/img195/2305/redstate.jpg&quot; rel=&quot;nofollow&quot; target=&quot;_NEW&quot;&gt;http://img195.imageshack.us/img195/2305/redstate.jpg&lt;/a&gt;\n\n\nVerenigde Staten\nHorror / Thriller\n98 minuten\n\ngeregisseerd door Kevin Smith\nmet Michael Angarano, John Goodman en Michael Parks\n\nDrie geile scholieren stuiten op een online advertentie van een oudere vrouw die op zoek is naar een gangbang. Jongens blijven jongens, en aldus gaan ze op weg om hun seksuele driften te bevredigen. Wat echter begint als een sprookje eindigt in een ware nachtmerrie als ze tegenover een verschrikkelijke &quot;heilige&quot; kracht, de extremistische predikant Abin Cooper, komen te staan die er zo z'n eigen dodelijke agenda op nahoudt.\n\n\nVertaald door Simply ReleaseS Toppers\nJack The Ripper, Depositair, Markow87 en Suurtje\n\n\n\n\nScreenshots:\n &lt;a href=&quot;\nhttp://img827.imageshack.us/img827/7895/screenshot1ni.jpg&quot; rel=&quot;nofollow&quot; target=&quot;_NEW&quot;&gt;\nhttp://img827.imageshack.us/img827/7895/screenshot1ni.jpg&lt;/a&gt;\n &lt;a href=&quot;\nhttp://img840.imageshack.us/img840/6605/screenshot2qv.jpg&quot; rel=&quot;nofollow&quot; target=&quot;_NEW&quot;&gt;\nhttp://img840.imageshack.us/img840/6605/screenshot2qv.jpg&lt;/a&gt;\n &lt;a href=&quot;\nhttp://img843.imageshack.us/img843/5836/screenshot3zv.jpg&quot; rel=&quot;nofollow&quot; target=&quot;_NEW&quot;&gt;\nhttp://img843.imageshack.us/img843/5836/screenshot3zv.jpg&lt;/a&gt;\n &lt;a href=&quot;\nhttp://img9.imageshack.us/img9/6466/screenshot4tn.jpg&quot; rel=&quot;nofollow&quot; target=&quot;_NEW&quot;&gt;\nhttp://img9.imageshack.us/img9/6466/screenshot4tn.jpg&lt;/a&gt;\n\n\n\nINFO;\n\n\nVideo\nID                                       : 0\nFormat                                   : MPEG-4 Visual\nFormat profile                           : Advanced Simple@L5\nFormat settings, BVOP                    : 1\nFormat settings, QPel                    : No\nFormat settings, GMC                     : No warppoints\nFormat settings, Matrix                  : Custom\nCodec ID                                 : XVID\nCodec ID/Hint                            : XviD\nDuration                                 : 1h 28mn\nBit rate                                 : 985 Kbps\nWidth                                    : 640 pixels\nHeight                                   : 352 pixels\nDisplay aspect ratio                     : 16:9\nFrame rate                               : 23.976 fps\nColor space                              : YUV\nChroma subsampling                       : 4:2:0\nBit depth                                : 8 bits\nScan type                                : Progressive\nCompression mode                         : Lossy\nBits/(Pixel*Frame)                       : 0.182\nStream size                              : 624 MiB (89%)\nWriting library                          : XviD 64\n\nAudio\nID                                       : 1\nFormat                                   : MPEG Audio\nFormat version                           : Version 1\nFormat profile                           : Layer 3\nMode                                     : Joint stereo\nMode extension                           : MS Stereo\nCodec ID                                 : 55\nCodec ID/Hint                            : MP3\nDuration                                 : 1h 28mn\nBit rate mode                            : Variable\nBit rate                                 : 108 Kbps\nNominal bit rate                         : 128 Kbps\nChannel(s)                               : 2 channels\nSampling rate                            : 48.0 KHz\nCompression mode                         : Lossy\nStream size                              : 68.5 MiB (10%)\nAlignment                                : Aligned on interleaves\nInterleave, duration                     : 24 ms (0.58 video frame)\nInterleave, preload duration             : 170 ms\nWriting library                          : LAME3.98r\n\n\n\n &lt;a href=&quot;\nhttp://www.imdb.com/title/tt0873886/&quot; rel=&quot;nofollow&quot; target=&quot;_NEW&quot;&gt;\nhttp://www.imdb.com/title/tt0873886/&lt;/a&gt; &lt;a href=&quot;\nhttp://www.moviemeter.nl/film/72512&quot; rel=&quot;nofollow&quot; target=&quot;_NEW&quot;&gt;\nhttp://www.moviemeter.nl/film/72512&lt;/a&gt;\n\n\n\nDeze film wordt u aangeboden door het DutchReleaseTeam.\nVoor de reviews van de nieuwste films, muziek, series, games etc\nga dan eens naar http://www.hetmultimediacafe.be\n\nDutchReleaseteam = Hardcoded Dutch Subs","torrent":{"xt":"urn:btih:281640545305f935ce95929659c4c737d62a6e43","amp;dn":"Red+State+%282011%29+BRRip+NL+subs+DutchReleaseTeam+%5BHorror%26amp%3BThri","amp;tr":["udp%3A%2F%2Ftracker.openbittorrent.com%3A80","udp%3A%2F%2Fopen.demonii.com%3A1337","udp%3A%2F%2Ftracker.coppersurfer.tk%3A6969","udp%3A%2F%2Fexodus.desync.com%3A6969"],"infoHash":"281640545305f935ce95929659c4c737d62a6e43","infoHashBuffer":{"type":"Buffer","data":[40,22,64,84,83,5,249,53,206,149,146,150,89,196,199,55,214,42,110,67]},"announce":[],"urlList":[]}}